<svg xmlns="http://www.w3.org/2000/svg" xmlns:xlink="http://www.w3.org/1999/xlink" viewBox="0 0 302.86 98.99"><defs><style>.cls-1{fill:none;}.cls-2{clip-path:url(#clip-path);}.cls-3{fill:#822f8f;}.cls-4{fill:#2ab6e6;}.cls-5{fill:#65ba47;}.cls-6{fill:#dcd12c;}.cls-7{fill:#f38433;}.cls-8{fill:#ea3537;}</style><clipPath id="clip-path"><path class="cls-1" d="M58.45,24a9.86,9.86,0,0,0-7.69,4.43l-27.15,47H42.34A9.81,9.81,0,0,0,50,71l27.13-47L58.47,24ZM71.09,2.08a9.85,9.85,0,0,0-7.68,4.44L57.33,17.06H77.76a5.93,5.93,0,0,0,5.12-2.95l6.94-12Z"/></clipPath></defs><title>Asset 3</title><g id="Layer_2" data-name="Layer 2"><g id="Layer_1-2" data-name="Layer 1"><path d="M42.34,77.54H22.05c-1.13,0-1.59-.79-1-1.77L49,27.38a12,12,0,0,1,9.49-5.47L78.71,22c1.11,0,1.58.8,1,1.77L51.82,72.07a11.93,11.93,0,0,1-9.48,5.47M27.22,73.38H42.34A7.76,7.76,0,0,0,48.21,70L73.53,26.12l-15.07,0a7.75,7.75,0,0,0-5.89,3.39Zm27.52-56L61.61,5.48A12.16,12.16,0,0,1,71.09,0H91.38c1.13,0,1.59.8,1,1.77L84.69,15.15a8,8,0,0,1-6.93,4h-22c-1.12,0-1.58-.8-1-1.78M71.09,4.17a7.73,7.73,0,0,0-5.87,3.39L60.94,15H77.76a3.83,3.83,0,0,0,3.31-1.91l5.14-8.89Z"/><path d="M50.68,83.8H30.39c-1.13,0-1.59-.8-1-1.77L57.3,33.64a11.92,11.92,0,0,1,9.49-5.48l20.26.07c1.11,0,1.58.8,1,1.77L60.16,78.32a11.92,11.92,0,0,1-9.48,5.48m12.4-60.17L70,11.73a12.14,12.14,0,0,1,9.48-5.47H99.72c1.13,0,1.59.79,1,1.77L93,21.4a8,8,0,0,1-6.92,4h-22c-1.12,0-1.58-.8-1-1.77"/><g class="cls-2"><rect class="cls-3" x="18.91" y="63.23" width="79.38" height="12.35"/><rect class="cls-4" x="22.67" y="50.93" width="79.38" height="12.35"/><rect class="cls-5" x="18.88" y="38.64" width="79.38" height="12.35"/><rect class="cls-6" x="18.88" y="26.35" width="79.38" height="12.35"/><rect class="cls-7" x="18.6" y="14.11" width="79.38" height="12.88"/><rect class="cls-8" x="18.88" y="1.77" width="79.38" height="12.35"/></g><path d="M10.79,97.59c.15.91-.84,1.37-3,1.37H3.54a4.51,4.51,0,0,1-3.15-.82A1.2,1.2,0,0,1,0,97.51V93a2,2,0,0,1,1.56-1.29c.26,0,.54-.06.82-.08s.57,0,.87,0h7.34l-.22,1H3.74A1.5,1.5,0,0,0,2.38,93l-.09,4.58a.45.45,0,0,0,.07.18c.07.12.33.18.78.2l4.39,0c.53,0,.82-.14.87-.38l.1-1.94H6l0-1h4.71l0,.7Zm3.48-2V99L12,99v-7.4h7.42c.27,0,.59,0,1.46,0,1.49.05,1.73.9,1.77,1.44.14,1.55.14,1.92.14,1.92,0,.46-.42.69-1.21.71h-.9L22.9,99H20.63l-2.28-3.32ZM19,92.55H14.24v2.08h5.31c.53,0,.8-.2.8-.6,0,0,0-.26,0-1,0-.32-.28-.5-1.29-.49m8.6,0c-.72,0-1.43.12-1.45.62s0,1.46,0,1.46h6.11l0,1-6.1,0v2a.58.58,0,0,0,.07.14c.1.15.36.22.76.2h7.84l-.19,1H27.42a4.5,4.5,0,0,1-3.14-.82,1.14,1.14,0,0,1-.38-.63V93a1.94,1.94,0,0,1,1.56-1.29c.26,0,.54-.06.81-.08s.58,0,.87,0h7.29l-.16,1Zm15.29,0H39.57c-.64,0-1.2,0-1.47.46l0,1.62h6.06v1H38.1l0,2v0c0,.07.06.12.07.14s.36.22.76.2h7.84l-.19,1H39.37a4.53,4.53,0,0,1-3.15-.82,1.2,1.2,0,0,1-.38-.63V93a2,2,0,0,1,1.56-1.29c.27,0,.54-.06.82-.08s.57,0,.87,0h7.28l-.16,1Zm7.15.46V99H47.79v-7.4s7.11,0,8.26,0,2.52.3,2.5,1.48,0,5.92,0,5.92h-2.4V93.77c0-.51-.48-.76-1.43-.76Zm20.3-.46c-.64,0-1.44,0-1.46.46s0,1.62,0,1.62h6l0,1H68.9v2l.07.14c.11.15.36.22.76.2h7.84l-.19,1H70.16A4.55,4.55,0,0,1,67,98.14a1.2,1.2,0,0,1-.38-.63V93a2,2,0,0,1,1.55-1.29c.27,0,.54-.06.82-.08s.58,0,.87,0h7.29l-.16,1Zm13.57,1.67.86-.77,2.08-1.84h2.37l-4.14,3.62L89.34,99H87l-3-2.71-.94.87L80.89,99H78.58l4.18-3.7-4.15-3.7H81Zm8.88,1.38v3.31H90.51l0-6A1.93,1.93,0,0,1,92,91.62l.82-.08.86,0H97.9l.77,0q.36,0,.69.09c1.6.23,1.73.92,1.77,1.35.12,1.36.14,1.91.14,1.91,0,.46-.53.69-1.55.69h-6.9Zm4.35-3.1h-3a1.54,1.54,0,0,0-1.4.47v1.61h4.91q1.14,0,1.14-.6s0-.64,0-1-.31-.5-1.29-.5Zm12.37,0H106.2a1.61,1.61,0,0,0-1.42.46v1.62h6.07v1h-6.08v2c0,.07,0,.12,0,.14s.36.22.75.2h7.85l-.19,1H106a4.5,4.5,0,0,1-3.14-.82,1.14,1.14,0,0,1-.38-.63V93A2,2,0,0,1,104,91.67c.26,0,.54-.06.82-.08s.57,0,.86,0H113l-.16,1Zm27.34,0h-3.34a1.64,1.64,0,0,0-1.43.46v1.62h6.07v1h-6.07v2a.7.7,0,0,1,0,.14c.11.15.36.22.76.2h7.84l-.19,1h-7.23a4.55,4.55,0,0,1-3.15-.82,1.2,1.2,0,0,1-.38-.63V93a1.94,1.94,0,0,1,1.55-1.29c.27,0,.54-.06.82-.08s.57,0,.87,0h7.29l-.16,1Zm35.76,0H169.3a1.61,1.61,0,0,0-1.42.46v1.62h6.06l0,1h-6.08v2a.7.7,0,0,1,0,.14c.11.15.36.22.76.2h7.84l-.19,1h-7.23a4.5,4.5,0,0,1-3.14-.82,1.14,1.14,0,0,1-.38-.63V93a2,2,0,0,1,1.56-1.29c.26,0,.53-.06.81-.08s.57,0,.87,0h7.29l-.16,1Zm30.88,0h-3.35a1.62,1.62,0,0,0-1.42.46v1.62h6.07v1h-6.07v2a.87.87,0,0,1,0,.14c.11.15.36.22.76.2h7.84l-.19,1H200a4.5,4.5,0,0,1-3.15-.82,1.2,1.2,0,0,1-.38-.63V92.91A2,2,0,0,1,198,91.62c.27,0,.54-.06.82-.08s.57,0,.87,0H207l-.17,1ZM128.72,99h-2.35l0-7.4h2.31Zm32-6.41h-3.34a1.49,1.49,0,0,0-1.36.46l0,4.6a.67.67,0,0,0,.11.23c.07.08.25.11.67.13h7.84l-.16,1h-7.27a4.52,4.52,0,0,1-3.14-.82,1.2,1.2,0,0,1-.38-.63V93a2,2,0,0,1,1.56-1.29c.26,0,.53-.06.82-.08s.57,0,.87,0h7.34l-.22,1Zm30.8,0H191V99h-2.29V92.55h-4.26v-1H195v1Zm67,5a.74.74,0,0,0,.72.38h7.82l-.14,1h-7.23a4.53,4.53,0,0,1-3.15-.82,1.2,1.2,0,0,1-.38-.63v-6l2.38,0Zm32.54,0c.16.91-.65,1.4-2.8,1.4H284a4.5,4.5,0,0,1-3.14-.82,1.2,1.2,0,0,1-.38-.63V93A2,2,0,0,1,282,91.67c.26,0,.54-.06.82-.08s.57,0,.87,0h7.34l-.22,1H284.2a1.5,1.5,0,0,0-1.36.46v4.58a.67.67,0,0,0,.07.18c.08.12.24.18.69.2l4.4,0c.52,0,.81-.14.86-.38V95.67h-2.38l0-1,4.6,0ZM116.77,95.64V99l-2.3,0v-7.4h7.42c.27,0,.58,0,1.46,0,1.49.05,1.72.9,1.77,1.44.13,1.55.14,1.92.14,1.92,0,.46-.43.69-1.22.71h-.89L125.39,99h-2.26l-2.29-3.32Zm4.75-3.09h-4.79v2.08H122c.52,0,.79-.2.79-.6,0,0,0-.26,0-1,0-.32-.27-.5-1.29-.49M144,93V99H141.7v-7.4s7.12,0,8.27,0,2.51.3,2.5,1.48,0,5.92,0,5.92h-2.39V93.77c0-.51-.48-.76-1.43-.76Zm71.41-.46h-3.34a1.49,1.49,0,0,0-1.36.46l0,4.6a.67.67,0,0,0,.11.23c.07.08.25.11.67.13h7.83l-.16,1h-7.26a4.5,4.5,0,0,1-3.14-.82,1.29,1.29,0,0,1-.39-.63V93a2,2,0,0,1,1.56-1.29c.26,0,.53-.06.82-.08s.57,0,.86,0h7.34l-.21,1ZM234.5,93V99h-2.28v-7.4s7.11,0,8.26,0,2.52.31,2.51,1.48S243,99,243,99h-2.39V93.79c0-.5-.48-.75-1.43-.75Zm18.81-1.37c-.26,0-.54-.06-.82-.08s-.57,0-.87,0h-4.17c-.29,0-.58,0-.86,0s-.56,0-.82.08A1.93,1.93,0,0,0,244.21,93v4.55a1.2,1.2,0,0,0,.38.63,4.5,4.5,0,0,0,3.14.82h3.59a4.51,4.51,0,0,0,3.15-.82,1.2,1.2,0,0,0,.38-.63V93a1.93,1.93,0,0,0-1.56-1.29m-.75,3.26v2.52c0,.41-.75.53-1.43.53H248c-.68,0-1.44-.12-1.44-.53V93.08c0-.41.76-.53,1.44-.53h3.18c.68,0,1.43.12,1.43.53Zm25.09-3.26c-.26,0-.53-.06-.81-.08s-.58,0-.87,0H271.8q-.45,0-.87,0c-.28,0-.55,0-.82.08A2,2,0,0,0,268.55,93v4.55a1.27,1.27,0,0,0,.38.63,4.55,4.55,0,0,0,3.15.82h3.59a4.5,4.5,0,0,0,3.14-.82,1.22,1.22,0,0,0,.39-.63V93a1.93,1.93,0,0,0-1.56-1.29m-.74,3.26v2.52c0,.41-.75.53-1.44.53H272.3c-.69,0-1.44-.12-1.44-.53V93.08c0-.41.75-.53,1.44-.53h3.17c.69,0,1.44.12,1.44.53Zm23.58-3.35-3,2.64-3-2.66h-2.35l4.47,4V99h1.68V95.52l4.55-3.94Zm-71.82,0V94.6h-6V91.53h-2.33V99h2.33V95.52h6V99H231V91.53Z"/><path d="M280.61,59.4c-8.37,0-25.43,0-33.16,0-2.75,0-3.91-2-2.58-4.38l9-16.34a1.66,1.66,0,0,1,1.29-.77h16a1.1,1.1,0,0,0,1-.61l1.56-3c.23-.46,0-.82-.5-.82l-15.4,0c-.55,0-.79-.38-.52-.86,1.61-3,3.56-6.65,5.07-9.22.3-.5.05-.92-.53-.92-6.1,0-11.91,0-16.11,0a.7.7,0,0,0-.56.35l-8.54,15.84c.23-.65-.75-5.17-8.48-5.2-17.76,0-39.19.05-39.19.05-14.39-.26-18.36,5.15-18.36,5.15l1.95-3.57a1,1,0,0,0-1-1.63c-7.32,0-31.15,0-56.11,0a15.31,15.31,0,0,0-12,7.07c-2.82,5-5.49,9.91-5.94,10.68l-4.13,0c1.3-2.52,1.83-3.43,2.58-4.89.45-.87,0-1.59-.94-1.59-5.54,0-15,0-17.23,0l-2.48,3.87h6.17s-1.61,2.68-2.86,4.81c-.54.91-.1,1.66,1,1.66,8.09,0,15.65,0,15.65,0-2.47,4.26-.84,8.41,4.09,8.42,12.62,0,34.81,0,39.29,0,.44,0,.62.31.4.7-.54,1-1.26,2.3-2.63,5-1.17,2.27-5.69,4-10.17,4H88.09a5.21,5.21,0,0,0-4.15,2.46L83.29,77c-.24.43,0,.78.46.78l57.89,0c4.62,0,8.92-2.7,11.62-7.69s3.65-6.34,6.88-12.39c0,0,1.52,6,7.89,6h49.49c5,0,8.67-6.15,8.67-6.15a6,6,0,0,0,6.46,6.19l5.84,0c17.08,0,30,0,37.9,0a5.23,5.23,0,0,0,3.89-2.1c.39-.58.7-1,.8-1.2.37-.51.17-.94-.47-.94M153.3,38.66c-1.74,3.14-8.26,14.9-10.69,19.24a3.15,3.15,0,0,1-2.51,1.47H112.41a1.08,1.08,0,0,1-1-1.75l8.43-15.16a9.81,9.81,0,0,1,7.75-4.56h25.29c.5,0,.69.34.45.77m30.13,8.41,2.36-4.36a9,9,0,0,1,4.08-3.59A11.24,11.24,0,0,1,195,37.9H218.6c.55,0,.79.39.52.87-.63,1.16-2,3.66-4.73,8.5a3.21,3.21,0,0,1-2.51,1.48H207.2s-17,0-22.79,0c-1,0-1.47-.74-1-1.65m44,8.16c-4,0-8.32,0-12.13,0a1.23,1.23,0,0,0-1,.57l-1.15,2.08a3.19,3.19,0,0,1-2.53,1.49H178.51a1.12,1.12,0,0,1-1-1.66l2.24-4a1.23,1.23,0,0,1,1-.57h38.83c5.14,0,8.08-.05,10.62-3,0,0-.82,1.58-2.79,5"/></g></g></svg>