<svg width="124" height="43" viewBox="0 0 124 43" fill="none" xmlns="http://www.w3.org/2000/svg">
<path d="M8.39999 1.6C9.29999 3.8 11 5.8 12.7 7.7C12.2 8.5 11.4 9.2 10.9 10C8.29999 13.1 7.19999 17.7 8.09999 21.8C8.79999 25.7 10.3 29.4 12.8 32.6C12.9 25.9 15.2 20 20.3 15.8C21.8 14.7 23.4 13.7 25.2 13.4C26.3 15.4 27.5 17.4 29 19.3C29.1 19.5 29 19.7 28.8 19.8C24 19.7 19.2 23.4 17.5 27.8C16.8 29.6 16.4 31.5 16.4 33.5C16.5 33.7 16.6 33.6 16.7 33.5L29.3 25.3C29.9 22.4 32.1 19.5 35 18.6C37.9 17.7 41.5 18.4 43.4 21C43.9 21.6 44.2 22.4 44.6 23.1L44.3 23.5L38.3 28.8C38.3 29 38.6 29 38.7 29C40 29.3 41.2 29.1 42.2 28.4L54.8 17.5L57.2 15.4C57.8 15.4 58.2 15.9 58.6 16.1C60.5 17.6 61.6 19.7 62 21.9C62.1 22 62.3 22 62.4 22C65 20.3 67.5 18.4 70 16.7C70.2 16.2 70.2 15.7 70.4 15.2C73.7 12.1 78 10.4 82.4 11.6C84.6 12.3 86.5 14.4 87.1 16.6C87.2 16.7 87.4 16.6 87.5 16.6L92.2 13.7C92.9 13.1 93.1 12.2 93.7 11.6C95.9 8.6 99.5 7.1 103.1 8C104.3 8.3 105.4 8.8 106.5 9.4C106.9 9 106.6 8.1 107.4 8C109.3 8 111.3 8.1 113.2 7.9L113.3 8.1L112.2 12.9C112.1 13.8 112.6 14.6 113.3 15.1C113.8 15.5 114.4 15.5 115 15.4C115.5 15.3 115.9 14.8 116.3 14.5C117.4 15.1 118.4 15.7 119.4 16.3C120.1 16.2 120.9 16.2 121.5 16H121.7C122 16.7 122.5 17.5 123.1 18.1L122.9 18.3L112.7 20.2L98.3 23.1L73.7 27.9L73.5 28.1L73 31L72.8 31.1C71.1 31.4 69.3 31.8 67.6 32.1C67.6 31.2 68 30.4 67.9 29.5C65.1 29.8 62.5 30.4 59.8 30.9L42 34.6L1.99999 42.3C1.79999 42.2 1.99999 42.1 1.99999 42C3.19999 40.7 4.09999 39.3 4.49999 37.6C6.29999 37.2 8.09999 36.9 9.89999 36.5C10.5 36.4 11 36.3 11.5 36.1C5.29999 29.9 0.499993 22.7 -7.31088e-06 14.3C-0.300007 9.2 1.79999 5 5.29999 1.6C6.09999 0.9 6.89999 0.4 7.79999 0C7.99999 0.5 8.19999 1.1 8.39999 1.6ZM92.3 16.8C92.2 16.8 92.1 16.8 92.1 16.8L86.1 20.7C86 21.4 85.4 21.8 85.1 22.4L94.7 20.4C93.4 19.8 92.4 18.3 92.3 16.8ZM80.4 17.9C80.2 17.3 79.7 16.8 79.2 16.4C78.4 15.9 77.1 15.8 76.3 16.4C75.5 17.1 75.5 18.4 75.8 19.3C76.2 20.3 77.1 21 78.1 21.1C78.9 21.2 79.7 20.9 80.2 20.2C80.6 19.7 80.7 18.6 80.4 17.9ZM74.7 22.8H74.5C74.2 23.2 74.2 23.8 74.1 24.3L74.2 24.5L76.5 24.1L76.7 24C76 23.7 75.3 23.4 74.7 22.8ZM108.6 18C107.9 17.9 107.5 17.2 106.9 17.1L106.5 18C106.4 18.3 106.1 18.4 106.1 18.7C107 18.4 107.9 18.3 108.6 18ZM69.3 20.8H69.1L63.5 24.4C63 24.8 62.5 24.9 62.1 25.4C61.9 25.9 61.6 26.4 61.4 26.9C63.8 26.5 66.1 26 68.5 25.5C69 24.1 69.1 22.4 69.3 20.8ZM53.9 23.7L53.4 23C53.3 22.9 53.2 22.9 53.1 23L45.4 29.7L45.3 30C47.5 29.6 49.7 29.2 51.9 28.7C51.8 28.4 51.5 28.1 51.4 27.8C51.1 26.3 52.9 26.8 53.5 25.9C53.9 25.2 54.1 24.4 53.9 23.7ZM30.9 30.2C30.3 29.7 30.1 28.7 29.3 28.6L20.4 34.4L32.6 32L33.1 31.8C32.4 31.4 31.6 30.9 30.9 30.2ZM38.9 24.8C38.7 24.6 38.5 24.3 38.1 24.3C36.8 24 35.5 24.5 34.8 25.6C34.5 26.2 34.5 27 34.7 27.7C34.8 27.9 34.9 28.1 35.1 28.2L38.9 25.1V24.8ZM102 14.3C101.8 13.7 101.2 13.2 100.7 13C99.9 12.6 98.9 12.7 98.2 13.4C97.7 13.9 97.5 14.9 97.8 15.5C98 16.3 98.8 17 99.5 17.2C100.3 17.4 101.1 17.3 101.6 16.7C102.3 16.1 102.3 15.1 102 14.3Z" fill="white"/>
</svg>
