<svg width="148" height="51" viewBox="0 0 148 51" fill="none" xmlns="http://www.w3.org/2000/svg">
<path d="M10.57 1.92C11.8439 4.61794 13.5763 7.07438 15.69 9.18C15.12 10.18 14.17 10.94 13.53 11.89C11.9673 13.8618 10.8586 16.154 10.283 18.6032C9.70745 21.0525 9.67911 23.5985 10.2 26.06C11.0071 30.7892 12.9531 35.251 15.87 39.06C16.03 31.06 18.8 24.06 24.87 19.06C26.5709 17.6757 28.5592 16.6884 30.69 16.17C31.9753 18.6839 33.5097 21.0625 35.27 23.27C35.2995 23.3233 35.316 23.3828 35.3184 23.4436C35.3207 23.5045 35.3088 23.565 35.2835 23.6204C35.2582 23.6758 35.2203 23.7246 35.1728 23.7627C35.1253 23.8008 35.0696 23.8273 35.01 23.84C29.27 23.7 23.55 28.2 21.49 33.42C20.6076 35.5894 20.1493 37.908 20.14 40.25C20.22 40.48 20.43 40.32 20.54 40.25L35.54 30.49C36.3 27.06 38.88 23.58 42.41 22.49C45.94 21.4 50.16 22.28 52.41 25.39C52.9895 26.1548 53.4731 26.9876 53.85 27.87L53.53 28.36L46.29 34.68C46.29 34.95 46.65 34.88 46.82 34.97C48.2739 35.2972 49.7979 35.0462 51.07 34.27L66.14 21.27L69 18.71C69.66 18.71 70.16 19.27 70.69 19.6C72.8439 21.3235 74.2715 23.7934 74.69 26.52C74.7148 26.5558 74.7467 26.5862 74.7836 26.6092C74.8206 26.6323 74.8619 26.6476 74.9049 26.6541C74.948 26.6607 74.992 26.6584 75.0341 26.6474C75.0762 26.6363 75.1157 26.6168 75.15 26.59C78.23 24.59 81.24 22.33 84.29 20.26C84.49 19.67 84.51 19.01 84.71 18.43C88.66 14.69 93.71 12.67 99.1 14.08C100.445 14.5692 101.657 15.3667 102.638 16.4087C103.619 17.4506 104.342 18.708 104.75 20.08C104.87 20.24 105.06 20.08 105.19 20.08L110.81 16.58C111.68 15.9 111.9 14.83 112.63 14.03C113.863 12.2398 115.609 10.8651 117.639 10.0868C119.669 9.30855 121.886 9.16323 124 9.67C125.414 10.0281 126.764 10.6051 128 11.38C128.46 10.86 128.14 9.78 129 9.66C131.32 9.66 133.67 9.75 135.94 9.59L136 9.78L134.73 15.49C134.703 16.003 134.813 16.514 135.051 16.9696C135.288 17.4252 135.644 17.8086 136.08 18.08C136.376 18.2624 136.705 18.3845 137.048 18.4394C137.391 18.4943 137.742 18.4809 138.08 18.4C138.658 18.1613 139.189 17.8228 139.65 17.4C140.91 18.08 142.13 18.86 143.36 19.6C144.229 19.5923 145.092 19.4541 145.92 19.19L146.09 19.25C146.498 20.1465 147.045 20.9733 147.71 21.7L147.43 21.94L135.27 24.2L118 27.61L88.52 33.39L88.32 33.67L87.68 37.19L87.41 37.31C85.33 37.71 83.26 38.15 81.16 38.48C81.16 37.37 81.64 36.48 81.51 35.48C78.2 35.84 75.05 36.56 71.87 37.15L50.65 41.37L2.86003 50.67C2.66003 50.59 2.86003 50.38 2.86003 50.27C4.27792 48.7944 5.30857 46.9907 5.86003 45.02C7.96003 44.52 10.19 44.12 12.34 43.68C13.0194 43.5739 13.6885 43.41 14.34 43.19C6.75002 35.79 1.06002 27.19 0.490023 17.19C0.320017 14.3415 0.803825 11.4918 1.90444 8.85901C3.00505 6.22621 4.6933 3.88004 6.84002 2C7.71859 1.16706 8.73324 0.490627 9.84002 0C10.18 0.58 10.33 1.29 10.62 1.92H10.57ZM110.86 20.11C110.74 20.11 110.68 20.11 110.59 20.17L103.47 24.87C103.3 25.67 102.64 26.22 102.3 26.95L113.83 24.61C113 24.1621 112.293 23.5177 111.77 22.7333C111.247 21.9488 110.924 21.0481 110.83 20.11H110.86ZM96.6 21.42C96.2946 20.6901 95.7795 20.0672 95.12 19.63C94.5972 19.2916 93.9878 19.1116 93.365 19.1116C92.7423 19.1116 92.1328 19.2916 91.61 19.63C91.1823 20.0891 90.8999 20.6645 90.7985 21.2838C90.697 21.903 90.7811 22.5384 91.04 23.11C91.2891 23.6791 91.6768 24.1768 92.1676 24.5576C92.6585 24.9384 93.2369 25.1902 93.85 25.29C94.3208 25.3572 94.8009 25.3003 95.2429 25.1249C95.6849 24.9495 96.0735 24.6617 96.37 24.29C96.6351 23.8686 96.7944 23.3894 96.8345 22.8932C96.8745 22.397 96.7941 21.8984 96.6 21.44V21.42ZM89.8 27.34H89.61C89.3808 27.9174 89.2295 28.5227 89.16 29.14L89.33 29.34L92.07 28.87L92.26 28.7C91.3434 28.4544 90.4995 27.9913 89.8 27.35V27.34ZM130.3 21.51C129.48 21.45 129.04 20.59 128.3 20.38L127.84 21.44C127.76 21.75 127.33 21.92 127.41 22.26C128.408 22.1504 129.384 21.8978 130.31 21.51H130.3ZM83.4 24.96H83.22L76.49 29.25C75.8835 29.5888 75.3079 29.9803 74.77 30.42C74.4507 30.982 74.1894 31.5751 73.99 32.19C76.83 31.73 79.64 31.19 82.42 30.55C82.9174 28.7232 83.2521 26.8559 83.42 24.97L83.4 24.96ZM64.92 28.44L64.41 27.52C64.2779 27.4701 64.1321 27.4701 64 27.52L54.79 35.52L54.66 35.85C57.31 35.37 59.98 34.94 62.58 34.31C62.3436 33.9485 62.1266 33.5746 61.93 33.19C61.59 31.44 63.73 32.06 64.43 30.88C64.6949 30.5507 64.8775 30.1631 64.9627 29.7492C65.0479 29.3353 65.0333 28.9071 64.92 28.5V28.44ZM37.47 36.18C36.76 35.58 36.56 34.41 35.56 34.32L24.96 41.32L39.54 38.49L40.1 38.31C39.1546 37.6932 38.2735 36.983 37.47 36.19V36.18ZM47 29.63C46.72 29.37 46.51 29.01 46.09 29.02C45.3482 28.817 44.5612 28.8548 43.8423 29.1279C43.1233 29.4011 42.5098 29.8956 42.09 30.54C41.7298 31.3281 41.6693 32.2205 41.92 33.05C42.0122 33.2926 42.1951 33.4898 42.43 33.6L46.92 29.84L47 29.63ZM122.5 17.15C122.181 16.4496 121.63 15.8809 120.94 15.54C120.46 15.3149 119.924 15.2385 119.4 15.3204C118.876 15.4024 118.388 15.639 118 16C117.693 16.3418 117.487 16.7619 117.404 17.2137C117.321 17.6655 117.365 18.1315 117.53 18.56C117.683 19.0469 117.952 19.4891 118.314 19.8482C118.677 20.2072 119.122 20.4722 119.61 20.62C120.055 20.7568 120.529 20.7705 120.982 20.6596C121.434 20.5486 121.848 20.3173 122.18 19.99C122.486 19.598 122.678 19.1297 122.736 18.6361C122.794 18.1425 122.716 17.6423 122.51 17.19L122.5 17.15ZM143.89 11.94V10.94H144.35C144.87 10.94 145.05 11.12 145.05 11.44C145.05 11.76 144.82 11.94 144.42 11.94H143.89ZM144.89 12.25C145.103 12.2422 145.305 12.1506 145.451 11.9952C145.597 11.8399 145.675 11.6332 145.67 11.42C145.67 10.71 145.01 10.55 144.38 10.55H143.3V13.4H143.9V12.28H144.3L145.08 13.36H145.85L144.89 12.25ZM144.44 14.52C143.935 14.522 143.44 14.3739 143.02 14.0944C142.599 13.815 142.27 13.4168 142.076 12.9505C141.882 12.4841 141.83 11.9706 141.929 11.475C142.027 10.9794 142.27 10.5241 142.627 10.1669C142.984 9.80967 143.439 9.56661 143.935 9.46853C144.431 9.37046 144.944 9.4218 145.411 9.61604C145.877 9.81028 146.275 10.1387 146.554 10.5595C146.834 10.9804 146.982 11.4748 146.98 11.98C146.977 12.6528 146.709 13.2974 146.233 13.7731C145.757 14.2489 145.113 14.5174 144.44 14.52ZM144.44 9.7C143.989 9.7 143.548 9.83372 143.173 10.0842C142.798 10.3348 142.506 10.6909 142.334 11.1075C142.161 11.5241 142.116 11.9825 142.204 12.4248C142.292 12.8671 142.509 13.2733 142.828 13.5922C143.147 13.9111 143.553 14.1282 143.995 14.2162C144.438 14.3042 144.896 14.259 145.313 14.0864C145.729 13.9139 146.085 13.6216 146.336 13.2467C146.586 12.8718 146.72 12.4309 146.72 11.98C146.72 11.3753 146.48 10.7954 146.052 10.3678C145.625 9.94021 145.045 9.7 144.44 9.7Z" fill="#010101"/>
</svg>
