<svg width="308" height="300" viewBox="0 0 308 300" fill="none" xmlns="http://www.w3.org/2000/svg">
<path d="M213.699 140.455C213.742 152.313 210.265 163.916 203.709 173.797C197.153 183.677 187.812 191.39 176.87 195.958C165.927 200.525 153.875 201.743 142.24 199.456C130.605 197.17 119.91 191.482 111.51 183.112C103.11 174.743 97.3823 164.069 95.053 152.442C92.7237 140.816 93.8972 128.759 98.4248 117.8C102.953 106.841 110.631 97.4715 120.487 90.8791C130.343 84.2868 141.934 80.7677 153.792 80.7676C161.645 80.7512 169.425 82.2822 176.686 85.2732C183.947 88.2643 190.548 92.6567 196.112 98.1996C201.675 103.743 206.091 110.327 209.109 117.578C212.127 124.828 213.686 132.602 213.699 140.455Z" fill="#54C0D0"/>
<path d="M143.017 164.637L120.025 141.802C119.711 141.438 119.545 140.969 119.561 140.489C119.577 140.008 119.774 139.551 120.112 139.209C120.45 138.867 120.904 138.665 121.385 138.644C121.865 138.622 122.336 138.782 122.703 139.092L143.064 159.234L185.006 116.947C185.366 116.599 185.847 116.406 186.348 116.409C186.848 116.413 187.327 116.612 187.682 116.965C188.036 117.318 188.239 117.796 188.245 118.296C188.251 118.796 188.061 119.279 187.716 119.64L143.017 164.637Z" fill="white"/>
<path d="M169.423 217.292H141.419C139.95 217.405 138.472 217.221 137.076 216.75C135.679 216.279 134.392 215.531 133.291 214.551C132.059 213.325 131.333 211.682 131.255 209.947V194.629H133.807V209.962C133.807 210.448 134.074 214.739 141.419 214.739H169.423C169.908 214.739 174.121 214.489 174.121 208.474V194.567H176.674V208.474C176.752 217.182 169.501 217.292 169.423 217.292Z" fill="#54C0D0"/>
<path d="M143.533 239.986C142.573 240.049 141.61 239.899 140.714 239.547C139.818 239.195 139.011 238.65 138.349 237.95C137.778 237.233 137.354 236.41 137.101 235.528C136.849 234.647 136.773 233.724 136.877 232.813V215.679H139.43V232.985C139.281 234.157 139.59 235.34 140.291 236.29C140.72 236.704 141.233 237.021 141.795 237.218C142.358 237.415 142.956 237.489 143.549 237.433H165.084C165.084 237.433 167.95 236.822 167.95 231.826V216.008H170.503V231.826C170.503 237.637 167.089 239.657 165.288 239.97L143.533 239.986Z" fill="#54C0D0"/>
<path d="M153.996 225.452H138.13C137.794 225.452 137.471 225.318 137.233 225.08C136.995 224.842 136.861 224.52 136.861 224.183C136.861 223.845 136.995 223.521 137.232 223.281C137.47 223.04 137.792 222.903 138.13 222.899H153.996C154.336 222.899 154.663 223.034 154.904 223.275C155.145 223.516 155.28 223.843 155.28 224.183C155.276 224.521 155.139 224.844 154.898 225.081C154.658 225.319 154.333 225.452 153.996 225.452V225.452Z" fill="#54C0D0"/>
<path d="M153.996 231.075H138.13C137.794 231.075 137.471 230.941 137.233 230.703C136.995 230.465 136.861 230.142 136.861 229.806C136.861 229.468 136.995 229.144 137.232 228.903C137.47 228.663 137.792 228.526 138.13 228.522H153.996C154.336 228.522 154.663 228.657 154.904 228.898C155.145 229.139 155.28 229.465 155.28 229.806C155.276 230.144 155.139 230.466 154.898 230.704C154.658 230.941 154.333 231.075 153.996 231.075V231.075Z" fill="#54C0D0"/>
<path d="M205.179 203.416C204.961 203.417 204.746 203.373 204.546 203.287C204.347 203.201 204.167 203.074 204.02 202.914L195.954 194.207C195.667 193.897 195.515 193.486 195.531 193.065C195.548 192.643 195.73 192.246 196.04 191.959C196.349 191.672 196.76 191.52 197.181 191.537C197.603 191.553 198.001 191.736 198.287 192.045L206.338 200.737C206.489 200.884 206.61 201.059 206.692 201.253C206.774 201.446 206.817 201.655 206.817 201.865C206.817 202.076 206.774 202.284 206.692 202.478C206.61 202.672 206.489 202.847 206.338 202.993C206.183 203.138 206.001 203.25 205.801 203.323C205.602 203.396 205.39 203.427 205.179 203.416Z" fill="#54C0D0"/>
<path d="M222.469 182.523C222.165 182.517 221.868 182.43 221.608 182.272L211.85 176.007C211.672 175.897 211.518 175.753 211.397 175.582C211.276 175.411 211.19 175.218 211.145 175.014C211.099 174.809 211.095 174.598 211.133 174.392C211.171 174.186 211.25 173.99 211.365 173.815C211.475 173.634 211.62 173.478 211.792 173.356C211.964 173.233 212.159 173.146 212.366 173.101C212.572 173.056 212.785 173.052 212.993 173.092C213.2 173.131 213.398 173.212 213.573 173.329L223.331 179.594C223.509 179.704 223.663 179.849 223.784 180.019C223.905 180.19 223.991 180.383 224.036 180.588C224.082 180.792 224.086 181.004 224.048 181.21C224.01 181.415 223.931 181.612 223.816 181.787C223.674 182.015 223.475 182.202 223.239 182.331C223.003 182.46 222.738 182.526 222.469 182.523V182.523Z" fill="#54C0D0"/>
<path d="M232.023 156.524C231.914 156.539 231.803 156.539 231.694 156.524L220.386 154.159C219.971 154.074 219.606 153.827 219.373 153.473C219.139 153.119 219.056 152.687 219.141 152.272C219.226 151.856 219.473 151.492 219.827 151.258C220.181 151.025 220.613 150.942 221.028 151.027L232.383 153.36C232.799 153.402 233.18 153.607 233.445 153.93C233.709 154.253 233.834 154.668 233.793 155.083C233.751 155.499 233.546 155.88 233.223 156.145C232.9 156.409 232.485 156.534 232.07 156.493L232.023 156.524Z" fill="#54C0D0"/>
<path d="M220.778 131.058C220.362 131.099 219.947 130.974 219.624 130.71C219.301 130.446 219.097 130.064 219.055 129.648C219.013 129.233 219.139 128.818 219.403 128.495C219.667 128.172 220.049 127.967 220.464 127.926L231.349 125.795C231.555 125.755 231.767 125.756 231.972 125.798C232.177 125.839 232.373 125.921 232.546 126.038C232.72 126.155 232.869 126.305 232.985 126.48C233.101 126.655 233.181 126.851 233.221 127.056C233.261 127.262 233.26 127.474 233.219 127.679C233.177 127.884 233.095 128.079 232.978 128.253C232.861 128.427 232.711 128.576 232.536 128.692C232.362 128.808 232.166 128.888 231.96 128.928L221.138 131.042C221.02 131.07 220.898 131.075 220.778 131.058Z" fill="#54C0D0"/>
<path d="M212.555 108.567C212.196 108.588 211.841 108.484 211.549 108.274C211.258 108.064 211.047 107.759 210.954 107.412C210.86 107.065 210.888 106.696 211.035 106.367C211.181 106.038 211.436 105.77 211.756 105.607L221.467 99.9691C221.83 99.7614 222.261 99.7066 222.665 99.8167C223.069 99.9269 223.413 100.193 223.62 100.556C223.828 100.92 223.883 101.351 223.773 101.755C223.663 102.159 223.397 102.502 223.033 102.71L213.37 108.332C213.127 108.489 212.844 108.571 212.555 108.567V108.567Z" fill="#54C0D0"/>
<path d="M197.442 90.7442C197.058 90.7519 196.684 90.6181 196.392 90.3684C196.23 90.2331 196.097 90.0664 196.001 89.8784C195.905 89.6903 195.848 89.4848 195.833 89.2741C195.818 89.0634 195.847 88.852 195.916 88.6524C195.985 88.4529 196.094 88.2694 196.236 88.113L203.44 79.7339C203.716 79.4141 204.108 79.2171 204.53 79.1863C204.951 79.1554 205.368 79.2933 205.688 79.5695C206.007 79.8457 206.204 80.2377 206.235 80.6592C206.266 81.0807 206.128 81.4971 205.852 81.817L198.648 90.1961C198.499 90.37 198.314 90.5092 198.105 90.6039C197.897 90.6986 197.67 90.7465 197.442 90.7442Z" fill="#54C0D0"/>
<path d="M176.752 78.6533C176.526 78.6517 176.302 78.6037 176.094 78.5123C175.902 78.4293 175.729 78.3086 175.584 78.1573C175.439 78.0061 175.326 77.8273 175.252 77.6317C175.177 77.436 175.143 77.2274 175.15 77.0182C175.158 76.809 175.207 76.6034 175.296 76.4136L179.994 65.9045C180.167 65.5203 180.485 65.2203 180.878 65.0705C181.272 64.9207 181.709 64.9334 182.093 65.1058C182.477 65.2782 182.777 65.5961 182.927 65.9897C183.077 66.3833 183.064 66.8202 182.892 67.2045L178.193 77.7136C178.071 77.9937 177.869 78.232 177.613 78.399C177.357 78.5659 177.058 78.6543 176.752 78.6533Z" fill="#54C0D0"/>
<path d="M153.792 75.145C153.377 75.145 152.978 74.98 152.685 74.6863C152.391 74.3926 152.226 73.9942 152.226 73.5788V61.5662C152.226 61.1508 152.391 60.7524 152.685 60.4587C152.978 60.165 153.377 60 153.792 60C154.207 60 154.606 60.165 154.899 60.4587C155.193 60.7524 155.358 61.1508 155.358 61.5662V73.5632C155.36 73.7702 155.321 73.9755 155.244 74.1673C155.166 74.3592 155.051 74.5337 154.905 74.6808C154.759 74.8279 154.586 74.9446 154.395 75.0243C154.204 75.104 153.999 75.145 153.792 75.145V75.145Z" fill="#54C0D0"/>
<path d="M131.02 78.9665C130.71 78.9751 130.406 78.8919 130.144 78.7275C129.882 78.563 129.674 78.3247 129.547 78.0425L125.084 67.2201C124.924 66.8297 124.926 66.3917 125.089 66.0025C125.252 65.6133 125.563 65.3048 125.953 65.1449C126.343 64.985 126.781 64.9867 127.171 65.1498C127.56 65.3128 127.868 65.6237 128.028 66.0142L132.492 76.8365C132.576 77.0294 132.62 77.2372 132.622 77.4475C132.624 77.6579 132.584 77.8665 132.504 78.0609C132.423 78.2554 132.304 78.4316 132.154 78.5791C132.004 78.7266 131.826 78.8424 131.63 78.9195C131.431 78.9726 131.224 78.9885 131.02 78.9665Z" fill="#54C0D0"/>
<path d="M110.644 90.7442C110.414 90.7446 110.186 90.6943 109.978 90.5968C109.769 90.4994 109.585 90.3572 109.438 90.1804L101.795 81.1748C101.523 80.8529 101.39 80.4361 101.425 80.0161C101.46 79.5961 101.661 79.2073 101.983 78.9352C102.305 78.6631 102.721 78.5301 103.141 78.5653C103.561 78.6006 103.95 78.8012 104.222 79.1231L111.865 88.1444C112.072 88.3729 112.207 88.6574 112.252 88.9622C112.298 89.2669 112.253 89.5784 112.123 89.8576C111.992 90.1369 111.782 90.3714 111.519 90.5319C111.256 90.6924 110.952 90.7717 110.644 90.7599V90.7442Z" fill="#54C0D0"/>
<path d="M95.0913 108.896C94.7981 108.897 94.5104 108.816 94.2612 108.661L84.4099 102.6C84.1977 102.516 84.0066 102.386 83.8498 102.22C83.6931 102.054 83.5744 101.856 83.5024 101.639C83.4303 101.423 83.4064 101.193 83.4325 100.966C83.4585 100.739 83.5339 100.521 83.6532 100.326C83.7725 100.132 83.933 99.9654 84.1233 99.8393C84.3137 99.7131 84.5292 99.6302 84.755 99.5961C84.9808 99.5621 85.2113 99.5779 85.4304 99.6423C85.6494 99.7067 85.8517 99.8182 86.0231 99.9691L95.8901 106.015C96.0707 106.122 96.2279 106.265 96.3523 106.434C96.4766 106.604 96.5655 106.797 96.6137 107.001C96.6619 107.206 96.6685 107.418 96.6329 107.625C96.5974 107.832 96.5206 108.03 96.4069 108.207C96.2618 108.422 96.0656 108.597 95.836 108.718C95.6064 108.838 95.3505 108.899 95.0913 108.896V108.896Z" fill="#54C0D0"/>
<path d="M87.2604 130.964H86.9942L75.326 128.944C75.119 128.911 74.9205 128.838 74.7424 128.728C74.5642 128.618 74.41 128.473 74.2888 128.302C74.1676 128.131 74.0819 127.938 74.0368 127.733C73.9917 127.529 73.988 127.317 74.0261 127.111C74.0582 126.904 74.1316 126.706 74.2417 126.527C74.3519 126.349 74.4967 126.195 74.6676 126.074C74.8385 125.953 75.0319 125.867 75.2365 125.822C75.441 125.777 75.6525 125.773 75.8585 125.811L87.5266 127.832C87.942 127.867 88.3264 128.066 88.5951 128.384C88.8639 128.703 88.995 129.115 88.9597 129.531C88.9244 129.946 88.7255 130.331 88.4068 130.599C88.0881 130.868 87.6758 130.999 87.2604 130.964V130.964Z" fill="#54C0D0"/>
<path d="M75.8429 156.524C75.4275 156.566 75.0127 156.44 74.6896 156.176C74.3665 155.912 74.1616 155.53 74.1201 155.114C74.0785 154.699 74.2037 154.284 74.468 153.961C74.7324 153.638 75.1143 153.433 75.5297 153.392L86.7749 151.058C87.1903 150.973 87.6224 151.056 87.9764 151.29C88.3303 151.523 88.577 151.888 88.6622 152.303C88.7473 152.719 88.6639 153.151 88.4304 153.505C88.1969 153.859 87.8323 154.105 87.417 154.19L76.1718 156.524C76.0627 156.539 75.952 156.539 75.8429 156.524Z" fill="#54C0D0"/>
<path d="M85.3026 182.413C84.9489 182.434 84.5983 182.335 84.3083 182.131C84.0183 181.928 83.8059 181.632 83.7059 181.292C83.6059 180.952 83.6241 180.588 83.7577 180.26C83.8912 179.931 84.1323 179.658 84.4413 179.484L93.8384 173.533C94.0133 173.418 94.2095 173.339 94.4155 173.301C94.6214 173.263 94.8328 173.267 95.0372 173.312C95.2416 173.358 95.4349 173.444 95.6056 173.565C95.7763 173.686 95.9209 173.84 96.031 174.018C96.1485 174.194 96.2294 174.391 96.2686 174.599C96.3079 174.806 96.3046 175.02 96.2593 175.226C96.2139 175.432 96.1274 175.627 96.0047 175.799C95.882 175.971 95.7258 176.117 95.5455 176.227L86.1483 182.163C85.8963 182.325 85.6027 182.412 85.3026 182.413V182.413Z" fill="#54C0D0"/>
<path d="M102.578 203.635C102.269 203.643 101.965 203.56 101.704 203.397C101.443 203.233 101.235 202.996 101.108 202.715C100.981 202.434 100.94 202.122 100.989 201.817C101.039 201.513 101.178 201.23 101.387 201.004L109.218 192.092C109.356 191.936 109.523 191.808 109.71 191.717C109.898 191.625 110.101 191.571 110.309 191.558C110.517 191.545 110.725 191.573 110.923 191.64C111.12 191.708 111.302 191.813 111.458 191.951C111.614 192.089 111.742 192.256 111.834 192.443C111.925 192.631 111.979 192.834 111.992 193.042C112.005 193.25 111.977 193.458 111.91 193.655C111.842 193.853 111.737 194.035 111.599 194.191L103.768 203.102C103.619 203.272 103.436 203.407 103.231 203.498C103.025 203.59 102.803 203.637 102.578 203.635V203.635Z" fill="#54C0D0"/>
</svg>
