<svg width="60" height="60" fill="none" xmlns="http://www.w3.org/2000/svg"><path d="M43.376 30.404a1.54 1.54 0 00-2.123.566l-6.848 12.013-2.849-7.912 5.068-8.865a1.6 1.6 0 00-.59-2.168 1.566 1.566 0 00-2.15.594l-3.78 6.6-2.834-7.884 1.972-3.438a1.6 1.6 0 00.15-1.207 1.588 1.588 0 00-.74-.961 1.565 1.565 0 00-2.15.594l-.67 1.173-1.548-4.294a1.559 1.559 0 00-.8-.884 1.54 1.54 0 00-1.186-.055 1.556 1.556 0 00-.877.807 1.575 1.575 0 00-.054 1.195l1.52 4.226-1.137-.415a1.542 1.542 0 00-1.677.41 1.568 1.568 0 00-.409 1.126 1.577 1.577 0 00.5 1.087c.15.14.326.248.518.318l3.588 1.381 2.863 7.926-6.971-2.568a1.55 1.55 0 00-1.16.09 1.57 1.57 0 00-.776.872c-.137.38-.124.8.037 1.172.162.37.46.665.83.82l9.423 3.452 2.862 7.912-12.805-4.694a1.563 1.563 0 00-1.19.057 1.582 1.582 0 00-.81.882 1.572 1.572 0 00.413 1.687c.15.138.327.245.519.315l15.613 5.73H34.624a1.573 1.573 0 00.972-.953v-.124l8.341-14.443a1.585 1.585 0 00-.561-2.14zm-7.738 20.711A18.514 18.514 0 0121.39 50.5a18.749 18.749 0 01-9.652-10.583c-3.52-9.762 7.258-34.864 7.258-34.864S43.266 17.3 46.787 27.048a18.933 18.933 0 01-.622 14.377 18.786 18.786 0 01-4.304 5.915 18.614 18.614 0 01-6.222 3.803v-.028zM18.38 1.063a1.21 1.21 0 00-1.438.552C14.697 6.78 5.18 30.846 8.822 40.925a21.87 21.87 0 0010.55 12.032 21.588 21.588 0 0015.855 1.555l1.616 4.474a1.575 1.575 0 00.82.876 1.55 1.55 0 001.709-.29 1.572 1.572 0 00.49-1.1 1.586 1.586 0 00-.102-.605l-1.616-4.418A21.858 21.858 0 0049.28 41.977a22.108 22.108 0 00.408-16.047C46.032 15.823 23.353 3.561 18.367 1.076" fill="#fff"/></svg>