<svg width="160" height="180" viewBox="0 0 160 180" fill="none" xmlns="http://www.w3.org/2000/svg">
<path d="M139.699 80.455C139.742 92.3126 136.265 103.916 129.709 113.797C123.153 123.677 113.812 131.39 102.87 135.958C91.927 140.525 79.875 141.743 68.2398 139.456C56.6047 137.17 45.9098 131.482 37.5097 123.112C29.1097 114.743 23.3823 104.069 21.053 92.4423C18.7237 80.8156 19.8972 68.7592 24.4248 57.7999C28.9525 46.8406 36.6307 37.4715 46.487 30.8791C56.3433 24.2868 67.9342 20.7677 79.792 20.7676C87.6452 20.7512 95.4247 22.2822 102.686 25.2732C109.947 28.2643 116.548 32.6567 122.112 38.1996C127.675 43.7425 132.091 50.3272 135.109 57.5776C138.127 64.8279 139.686 72.6018 139.699 80.455Z" fill="#54C0D0"/>
<path d="M69.0166 104.637L46.025 81.8019C45.7106 81.4381 45.5449 80.9692 45.561 80.4886C45.5771 80.0081 45.7737 79.5512 46.1117 79.2093C46.4497 78.8673 46.9043 78.6653 47.3846 78.6437C47.865 78.622 48.3358 78.7823 48.7032 79.0924L69.0636 99.2336L111.006 56.9465C111.366 56.5988 111.847 56.4059 112.348 56.4094C112.848 56.4128 113.327 56.6124 113.682 56.9651C114.036 57.3178 114.239 57.7956 114.245 58.2958C114.251 58.796 114.061 59.2787 113.716 59.6404L69.0166 104.637Z" fill="white"/>
<path d="M95.4225 157.292H67.4191C65.9496 157.405 64.4723 157.221 63.0757 156.75C61.679 156.279 60.3917 155.531 59.2906 154.551C58.0593 153.325 57.3328 151.682 57.2546 149.947V134.629H59.8074V149.962C59.8074 150.448 60.0737 154.739 67.4191 154.739H95.4225C95.908 154.739 100.121 154.489 100.121 148.474V134.567H102.674V148.474C102.752 157.182 95.5008 157.292 95.4225 157.292Z" fill="#54C0D0"/>
<path d="M69.5335 179.986C68.5728 180.049 67.6102 179.899 66.7142 179.547C65.8181 179.195 65.0106 178.65 64.3494 177.95C63.7781 177.233 63.354 176.41 63.1013 175.528C62.8487 174.647 62.7726 173.724 62.8772 172.813V155.679H65.4301V172.985C65.2814 174.157 65.5899 175.34 66.2915 176.29C66.72 176.704 67.233 177.021 67.7953 177.218C68.3576 177.415 68.9558 177.489 69.5492 177.433H91.0842C91.0842 177.433 93.9504 176.822 93.9504 171.826V156.008H96.5032V171.826C96.5032 177.637 93.0889 179.657 91.2878 179.97L69.5335 179.986Z" fill="#54C0D0"/>
<path d="M79.9956 165.452H64.1301C63.7936 165.452 63.471 165.318 63.233 165.08C62.9951 164.842 62.8615 164.52 62.8615 164.183C62.8615 163.845 62.9946 163.521 63.2321 163.281C63.4696 163.04 63.7922 162.903 64.1301 162.899H79.9956C80.3362 162.899 80.6628 163.034 80.9037 163.275C81.1445 163.516 81.2798 163.843 81.2798 164.183C81.2757 164.521 81.1386 164.844 80.8982 165.081C80.6578 165.319 80.3335 165.452 79.9956 165.452V165.452Z" fill="#54C0D0"/>
<path d="M79.9956 171.075H64.1301C63.7936 171.075 63.471 170.941 63.233 170.703C62.9951 170.465 62.8615 170.142 62.8615 169.806C62.8615 169.468 62.9946 169.144 63.2321 168.903C63.4696 168.663 63.7922 168.526 64.1301 168.522H79.9956C80.3362 168.522 80.6628 168.657 80.9037 168.898C81.1445 169.139 81.2798 169.465 81.2798 169.806C81.2757 170.144 81.1386 170.466 80.8982 170.704C80.6578 170.941 80.3335 171.075 79.9956 171.075V171.075Z" fill="#54C0D0"/>
<path d="M131.179 143.416C130.961 143.417 130.746 143.373 130.546 143.287C130.347 143.201 130.167 143.074 130.02 142.914L121.954 134.207C121.667 133.897 121.515 133.486 121.531 133.065C121.548 132.643 121.73 132.246 122.04 131.959C122.349 131.672 122.76 131.52 123.181 131.537C123.603 131.553 124.001 131.736 124.287 132.045L132.338 140.737C132.489 140.884 132.61 141.059 132.692 141.253C132.774 141.446 132.817 141.655 132.817 141.865C132.817 142.076 132.774 142.284 132.692 142.478C132.61 142.672 132.489 142.847 132.338 142.993C132.183 143.138 132.001 143.25 131.801 143.323C131.602 143.396 131.39 143.427 131.179 143.416Z" fill="#54C0D0"/>
<path d="M148.469 122.523C148.165 122.517 147.868 122.43 147.608 122.272L137.85 116.007C137.672 115.897 137.518 115.753 137.397 115.582C137.276 115.411 137.19 115.218 137.145 115.014C137.099 114.809 137.095 114.598 137.133 114.392C137.171 114.186 137.25 113.99 137.365 113.815C137.475 113.634 137.62 113.478 137.792 113.356C137.964 113.233 138.159 113.146 138.366 113.101C138.572 113.056 138.785 113.052 138.993 113.092C139.2 113.131 139.398 113.212 139.573 113.329L149.331 119.594C149.509 119.704 149.663 119.849 149.784 120.019C149.905 120.19 149.991 120.383 150.036 120.588C150.082 120.792 150.086 121.004 150.048 121.21C150.01 121.415 149.931 121.612 149.816 121.787C149.674 122.015 149.475 122.202 149.239 122.331C149.003 122.46 148.738 122.526 148.469 122.523V122.523Z" fill="#54C0D0"/>
<path d="M158.023 96.5241C157.914 96.5395 157.803 96.5395 157.694 96.5241L146.386 94.1591C145.971 94.074 145.606 93.8273 145.373 93.4734C145.139 93.1194 145.056 92.6872 145.141 92.2719C145.226 91.8565 145.473 91.492 145.827 91.2585C146.181 91.0249 146.613 90.9416 147.028 91.0267L158.383 93.3604C158.799 93.4019 159.18 93.6068 159.445 93.9298C159.709 94.2529 159.834 94.6678 159.793 95.0832C159.751 95.4986 159.546 95.8804 159.223 96.1448C158.9 96.4091 158.485 96.5343 158.07 96.4927L158.023 96.5241Z" fill="#54C0D0"/>
<path d="M146.778 71.0579C146.362 71.0994 145.947 70.9742 145.624 70.7099C145.301 70.4455 145.097 70.0637 145.055 69.6483C145.013 69.2329 145.139 68.8181 145.403 68.495C145.667 68.1719 146.049 67.967 146.464 67.9255L157.349 65.7955C157.555 65.7554 157.767 65.7562 157.972 65.7978C158.177 65.8395 158.373 65.9212 158.546 66.0383C158.72 66.1553 158.869 66.3055 158.985 66.4802C159.101 66.6548 159.181 66.8506 159.221 67.0563C159.261 67.2619 159.26 67.4735 159.219 67.6789C159.177 67.8842 159.095 68.0794 158.978 68.2532C158.861 68.427 158.711 68.576 158.536 68.6918C158.362 68.8075 158.166 68.8878 157.96 68.9279L147.138 71.0422C147.02 71.0699 146.898 71.0752 146.778 71.0579Z" fill="#54C0D0"/>
<path d="M138.555 48.5674C138.196 48.588 137.841 48.4844 137.549 48.274C137.258 48.0635 137.047 47.7591 136.954 47.4118C136.86 47.0646 136.888 46.6957 137.035 46.367C137.181 46.0384 137.436 45.7702 137.756 45.6073L147.467 39.9691C147.83 39.7614 148.261 39.7066 148.665 39.8167C149.069 39.9269 149.413 40.1929 149.62 40.5564C149.828 40.9198 149.883 41.3509 149.773 41.7548C149.663 42.1586 149.397 42.5022 149.033 42.7099L139.37 48.3325C139.127 48.489 138.844 48.5707 138.555 48.5674V48.5674Z" fill="#54C0D0"/>
<path d="M123.442 30.7442C123.058 30.7519 122.684 30.6181 122.392 30.3684C122.23 30.2331 122.097 30.0664 122.001 29.8784C121.905 29.6903 121.848 29.4848 121.833 29.2741C121.818 29.0634 121.847 28.852 121.916 28.6524C121.985 28.4529 122.094 28.2694 122.236 28.113L129.44 19.7339C129.716 19.4141 130.108 19.2171 130.53 19.1863C130.951 19.1554 131.368 19.2933 131.688 19.5695C132.007 19.8457 132.204 20.2377 132.235 20.6592C132.266 21.0807 132.128 21.4971 131.852 21.817L124.648 30.1961C124.499 30.37 124.314 30.5092 124.105 30.6039C123.897 30.6986 123.67 30.7465 123.442 30.7442Z" fill="#54C0D0"/>
<path d="M102.752 18.6533C102.526 18.6517 102.302 18.6037 102.094 18.5123C101.902 18.4293 101.729 18.3086 101.584 18.1573C101.439 18.0061 101.326 17.8273 101.252 17.6317C101.177 17.436 101.143 17.2274 101.15 17.0182C101.158 16.809 101.207 16.6034 101.296 16.4136L105.994 5.90452C106.167 5.5203 106.485 5.22029 106.878 5.07049C107.272 4.9207 107.709 4.93339 108.093 5.10577C108.477 5.27815 108.777 5.5961 108.927 5.98968C109.077 6.38326 109.064 6.82023 108.892 7.20446L104.193 17.7136C104.071 17.9937 103.869 18.232 103.613 18.399C103.357 18.5659 103.058 18.6543 102.752 18.6533Z" fill="#54C0D0"/>
<path d="M79.792 15.145C79.3766 15.145 78.9782 14.98 78.6845 14.6863C78.3908 14.3926 78.2258 13.9942 78.2258 13.5788V1.56619C78.2258 1.15081 78.3908 0.752441 78.6845 0.458724C78.9782 0.165007 79.3766 0 79.792 0C80.2073 0 80.6058 0.165007 80.8995 0.458724C81.1932 0.752441 81.3581 1.15081 81.3581 1.56619V13.5632C81.3602 13.7702 81.3213 13.9755 81.2435 14.1673C81.1657 14.3592 81.0507 14.5337 80.905 14.6808C80.7594 14.8279 80.586 14.9446 80.395 15.0243C80.2039 15.104 79.999 15.145 79.792 15.145V15.145Z" fill="#54C0D0"/>
<path d="M57.0196 18.9665C56.7104 18.9751 56.4055 18.8919 56.1435 18.7275C55.8815 18.563 55.6741 18.3247 55.5474 18.0425L51.0838 7.22012C50.9239 6.82967 50.9256 6.39168 51.0886 6.0025C51.2516 5.61333 51.5626 5.30485 51.953 5.14492C52.3435 4.985 52.7814 4.98674 53.1706 5.14975C53.5598 5.31277 53.8683 5.6237 54.0282 6.01416L58.4918 16.8365C58.5759 17.0294 58.6202 17.2372 58.6222 17.4475C58.6242 17.6579 58.5839 17.8665 58.5035 18.0609C58.4231 18.2554 58.3043 18.4316 58.1543 18.5791C58.0043 18.7266 57.8262 18.8424 57.6305 18.9195C57.4315 18.9726 57.2244 18.9885 57.0196 18.9665Z" fill="#54C0D0"/>
<path d="M36.6436 30.7442C36.4135 30.7446 36.1861 30.6943 35.9777 30.5968C35.7693 30.4994 35.5849 30.3572 35.4376 30.1804L27.7947 21.1748C27.5226 20.8529 27.3895 20.4361 27.4248 20.0161C27.46 19.5961 27.6607 19.2073 27.9826 18.9352C28.3046 18.6631 28.7213 18.5301 29.1413 18.5653C29.5613 18.6006 29.9502 18.8012 30.2223 19.1231L37.8653 28.1444C38.072 28.3729 38.2066 28.6574 38.2524 28.9622C38.2982 29.2669 38.253 29.5784 38.1226 29.8576C37.9922 30.1369 37.7823 30.3714 37.5192 30.5319C37.2561 30.6924 36.9515 30.7717 36.6436 30.7599V30.7442Z" fill="#54C0D0"/>
<path d="M21.0913 48.8963C20.7981 48.8973 20.5104 48.8159 20.2612 48.6614L10.4099 42.6003C10.1977 42.5159 10.0066 42.3862 9.84983 42.2202C9.69306 42.0542 9.57444 41.856 9.50235 41.6393C9.43027 41.4227 9.40642 41.1929 9.43248 40.9661C9.45853 40.7393 9.53386 40.5209 9.6532 40.3262C9.77254 40.1316 9.93299 39.9654 10.1233 39.8393C10.3137 39.7131 10.5292 39.6302 10.755 39.5961C10.9808 39.5621 11.2113 39.5779 11.4304 39.6423C11.6494 39.7067 11.8517 39.8182 12.0231 39.9691L21.8901 46.0145C22.0707 46.122 22.2279 46.2648 22.3523 46.4343C22.4766 46.6038 22.5655 46.7966 22.6137 47.0012C22.6619 47.2058 22.6685 47.418 22.6329 47.6252C22.5974 47.8324 22.5206 48.0304 22.4069 48.2072C22.2618 48.422 22.0656 48.5974 21.836 48.7176C21.6064 48.8379 21.3505 48.8993 21.0913 48.8963V48.8963Z" fill="#54C0D0"/>
<path d="M13.2604 70.9639H12.9942L1.32604 68.9435C1.11904 68.9114 0.920523 68.8381 0.742357 68.7279C0.564191 68.6177 0.409978 68.4729 0.288771 68.3021C0.167564 68.1312 0.0819086 67.9377 0.0367895 67.7332C-0.00832966 67.5286 -0.0120064 67.3171 0.0260831 67.1111C0.0582035 66.9041 0.131556 66.7056 0.24174 66.5274C0.351923 66.3493 0.496746 66.195 0.667604 66.0738C0.838462 65.9526 1.03191 65.8669 1.23647 65.8218C1.44104 65.7767 1.6525 65.7731 1.85849 65.8112L13.5266 67.8315C13.942 67.8668 14.3264 68.0657 14.5951 68.3844C14.8639 68.7031 14.995 69.1155 14.9597 69.5308C14.9244 69.9462 14.7255 70.3306 14.4068 70.5993C14.0881 70.8681 13.6758 70.9992 13.2604 70.9639V70.9639Z" fill="#54C0D0"/>
<path d="M1.84292 96.5241C1.42754 96.5656 1.01269 96.4404 0.689601 96.1761C0.366512 95.9117 0.161599 95.5299 0.120061 95.1145C0.0785231 94.6991 0.203672 94.2842 0.468017 93.9612C0.732363 93.6381 1.11429 93.4332 1.52967 93.3917L12.7749 91.0581C13.1903 90.9729 13.6224 91.0563 13.9764 91.2898C14.3303 91.5233 14.577 91.8878 14.6622 92.3032C14.7473 92.7186 14.6639 93.1508 14.4304 93.5047C14.1969 93.8586 13.8323 94.1053 13.417 94.1904L2.17176 96.5241C2.06267 96.5395 1.95201 96.5395 1.84292 96.5241Z" fill="#54C0D0"/>
<path d="M11.3026 122.413C10.9489 122.434 10.5983 122.335 10.3083 122.131C10.0183 121.928 9.80587 121.632 9.70587 121.292C9.60586 120.952 9.62411 120.588 9.75768 120.26C9.89125 119.931 10.1323 119.658 10.4413 119.484L19.8384 113.533C20.0133 113.418 20.2095 113.339 20.4155 113.301C20.6214 113.263 20.8328 113.267 21.0372 113.312C21.2416 113.358 21.4349 113.444 21.6056 113.565C21.7763 113.686 21.9209 113.84 22.031 114.018C22.1485 114.194 22.2294 114.391 22.2686 114.599C22.3079 114.806 22.3046 115.02 22.2593 115.226C22.2139 115.432 22.1274 115.627 22.0047 115.799C21.882 115.971 21.7258 116.117 21.5455 116.227L12.1483 122.163C11.8963 122.325 11.6027 122.412 11.3026 122.413V122.413Z" fill="#54C0D0"/>
<path d="M28.5777 143.635C28.2694 143.643 27.9654 143.56 27.704 143.397C27.4426 143.233 27.2353 142.996 27.1082 142.715C26.981 142.434 26.9398 142.122 26.9894 141.817C27.0391 141.513 27.1775 141.23 27.3874 141.004L35.2183 132.092C35.3561 131.936 35.5233 131.808 35.7104 131.717C35.8976 131.625 36.101 131.571 36.3089 131.558C36.5169 131.545 36.7254 131.573 36.9225 131.64C37.1197 131.708 37.3016 131.813 37.458 131.951C37.6143 132.089 37.7419 132.256 37.8335 132.443C37.9252 132.631 37.9791 132.834 37.9922 133.042C38.0053 133.25 37.9773 133.458 37.9098 133.655C37.8423 133.853 37.7367 134.035 37.5989 134.191L29.7679 143.102C29.6194 143.272 29.4363 143.407 29.2309 143.498C29.0255 143.59 28.8027 143.637 28.5777 143.635V143.635Z" fill="#54C0D0"/>
</svg>
