<svg width="60" height="60" viewBox="0 0 60 60" fill="none" xmlns="http://www.w3.org/2000/svg">
<g clip-path="url(#clip0)">
<path d="M31.3519 58C28.1327 57.9468 24.9772 57.0992 22.1686 55.5334C19.36 53.9675 16.9862 51.7325 15.2602 49.0288C15.1595 48.9082 15.0854 48.768 15.0425 48.6172C14.9997 48.4665 14.9891 48.3084 15.0114 48.1533C15.0337 47.9982 15.0885 47.8494 15.1721 47.7166C15.2558 47.5839 15.3665 47.47 15.4971 47.3824C15.6277 47.2948 15.7753 47.2354 15.9304 47.208C16.0855 47.1806 16.2447 47.1859 16.3976 47.2235C16.5505 47.2611 16.6938 47.3301 16.8183 47.4262C16.9427 47.5222 17.0456 47.6432 17.1202 47.7812C18.6507 50.1676 20.7514 52.1398 23.2347 53.5218C25.7181 54.9037 28.5068 55.6525 31.3519 55.7011H31.7042L49.6136 55.3087C50.0143 55.2961 50.4083 55.2026 50.7717 55.0339C51.135 54.8653 51.4601 54.6249 51.7272 54.3274C52.0365 53.9844 52.2732 53.583 52.4233 53.1472C52.5734 52.7113 52.6337 52.2498 52.6008 51.7902C52.5591 51.2693 52.3945 50.7655 52.1203 50.3198C51.846 49.8741 51.47 49.499 51.0227 49.225C50.8338 49.1071 50.6837 48.9368 50.5911 48.735C50.4984 48.5332 50.4672 48.3088 50.5013 48.0896C50.5411 47.8707 50.6454 47.6686 50.8009 47.5088C50.9565 47.3491 51.1563 47.239 51.3749 47.1925C52.0152 47.0465 52.5973 46.7144 53.0474 46.2384C53.4974 45.7625 53.7949 45.1641 53.9022 44.5194C54.0095 43.8748 53.9215 43.213 53.6497 42.6181C53.3778 42.0233 52.9342 41.5223 52.3754 41.1789C52.1853 41.0621 52.0345 40.8918 51.9419 40.6896C51.8493 40.4873 51.8192 40.2623 51.8555 40.043C51.8917 39.8237 51.9926 39.6201 52.1454 39.458C52.2982 39.2958 52.4959 39.1825 52.7136 39.1324C53.4872 38.9599 54.1728 38.517 54.646 37.8842C55.1192 37.2514 55.3485 36.4708 55.2922 35.6841C55.2596 35.2421 55.1365 34.8115 54.9305 34.4186C54.7246 34.0257 54.4401 33.6788 54.0945 33.3992C53.9216 33.2562 53.7956 33.0649 53.7329 32.8501C53.6701 32.6352 53.6733 32.4067 53.7422 32.1937C53.8097 31.9814 53.9399 31.7944 54.1158 31.6569C54.2918 31.5193 54.5053 31.4377 54.7286 31.4227C55.6028 31.3173 56.4038 30.8848 56.9691 30.2131C57.5344 29.5414 57.8215 28.6808 57.7722 27.8062C57.7633 27.4313 57.6789 27.0619 57.524 26.72C57.3691 26.3781 57.1469 26.0706 56.8704 25.8157C56.5147 25.4895 56.0973 25.2372 55.6424 25.0735C55.1875 24.9098 54.7044 24.8381 54.2213 24.8625L37.5096 25.8858C37.3092 25.8984 37.1091 25.8569 36.9305 25.7656C36.7518 25.6743 36.6014 25.5366 36.495 25.3671C36.3874 25.1971 36.3303 25.0003 36.3303 24.7994C36.3303 24.5985 36.3874 24.4017 36.495 24.2317L41.0464 16.0735C42.1032 14.1671 42.9627 8.51804 42.2582 6.68174C42.0064 6.24764 41.6422 5.88865 41.2035 5.64212C40.7649 5.39559 40.2678 5.27052 39.7641 5.27998C39.4541 5.27998 38.4537 5.28 38.1155 5.95284L33.1414 15.9333C33.0779 16.0597 32.9919 16.1737 32.8878 16.2698L18.5433 29.4463C18.3228 29.6371 18.0363 29.7352 17.7445 29.7199C17.4526 29.7046 17.1781 29.5772 16.9788 29.3645C16.7796 29.1517 16.6712 28.8703 16.6765 28.5796C16.6819 28.2888 16.8005 28.0115 17.0074 27.8062L31.2251 14.7559L36.1005 4.94357C36.4691 4.29165 37.0223 3.76197 37.6913 3.4205C38.3603 3.07903 39.1154 2.94085 39.8627 3.02316C40.7998 3.02902 41.7167 3.29443 42.5106 3.78961C43.3046 4.28479 43.9442 4.99016 44.3577 5.82667C45.3863 8.53205 44.2591 14.8259 42.9486 17.0407L39.3977 23.4187L54.0522 22.5216C54.8411 22.468 55.6327 22.5773 56.3772 22.8427C57.1216 23.108 57.8028 23.5237 58.3781 24.0635C58.8843 24.5255 59.2894 25.0863 59.5682 25.711C59.847 26.3356 59.9935 27.0106 59.9985 27.6941C60.0234 28.7967 59.7335 29.8838 59.1623 30.8291C58.5912 31.7744 57.7622 32.5392 56.7717 33.0347C57.1871 33.7616 57.4372 34.5703 57.5044 35.4037C57.5692 36.3915 57.37 37.3787 56.9269 38.265C56.4839 39.1514 55.813 39.9052 54.9822 40.45C55.6672 41.3097 56.0749 42.3554 56.1517 43.4498C56.228 44.441 56.034 45.4343 55.5901 46.325C55.1461 47.2156 54.4688 47.9706 53.6295 48.5101C54.3173 49.3695 54.7296 50.4145 54.8131 51.5099C54.8721 52.2689 54.7779 53.032 54.5359 53.7542C54.2939 54.4764 53.909 55.1432 53.404 55.7151C52.9333 56.2403 52.3587 56.6632 51.7162 56.9575C51.0737 57.2517 50.3771 57.411 49.6699 57.4253L31.7605 57.8178L31.3519 58Z" fill="white" stroke="white" stroke-width="0.5" stroke-miterlimit="10"/>
<path d="M12.5102 58H4.43418C3.25308 57.9852 2.12532 57.5005 1.29531 56.651C0.465298 55.8014 -9.05646e-05 54.6554 1.32193e-08 53.4614V26.5246C1.32193e-08 25.3246 0.471565 24.1738 1.31095 23.3252C2.15034 22.4767 3.2888 22 4.47588 22H12.5102C13.0992 21.9982 13.6827 22.1138 14.2273 22.3404C14.772 22.567 15.267 22.8999 15.6841 23.3203C16.1012 23.7406 16.4322 24.24 16.658 24.7899C16.8838 25.3397 17 25.9293 17 26.5246V53.4754C16.9963 54.6767 16.5217 55.8275 15.6801 56.6756C14.8385 57.5238 13.6986 58 12.5102 58V58ZM4.42028 24.2764C3.82893 24.2799 3.2624 24.5171 2.84166 24.9371C2.42091 25.3572 2.17931 25.9269 2.16844 26.5246V53.4754C2.16844 54.0829 2.40715 54.6654 2.83206 55.095C3.25697 55.5245 3.83327 55.7658 4.43418 55.7658H12.5102C13.1111 55.7658 13.6874 55.5245 14.1123 55.095C14.5372 54.6654 14.776 54.0829 14.776 53.4754V26.5246C14.7778 26.2227 14.7205 25.9233 14.6075 25.6438C14.4945 25.3643 14.3279 25.1101 14.1173 24.896C13.9067 24.6818 13.6563 24.5118 13.3805 24.3959C13.1047 24.2799 12.8089 24.2202 12.5102 24.2202L4.42028 24.2764ZM8.22895 51.5925C7.70817 51.5953 7.19833 51.4415 6.76417 51.1508C6.33002 50.86 5.99114 50.4455 5.79058 49.9596C5.59001 49.4738 5.53682 48.9386 5.63774 48.4221C5.73867 47.9057 5.98916 47.4312 6.35741 47.0589C6.72566 46.6867 7.19504 46.4334 7.70595 46.3314C8.21686 46.2294 8.74624 46.2832 9.22685 46.4859C9.70746 46.6887 10.1176 47.0312 10.4052 47.4701C10.6928 47.909 10.8449 48.4244 10.8422 48.9508C10.8277 49.6392 10.5479 50.2947 10.0624 50.7777C9.57685 51.2606 8.92399 51.5328 8.24285 51.5363L8.22895 51.5925ZM8.22895 48.5434C8.12203 48.5434 8.0195 48.5863 7.94391 48.6627C7.86831 48.7391 7.82584 48.8427 7.82584 48.9508C7.82584 49.4005 8.63205 49.4005 8.63205 48.9508C8.6399 48.894 8.63578 48.8361 8.61995 48.7809C8.60412 48.7258 8.57694 48.6747 8.54019 48.6309C8.50344 48.5871 8.45795 48.5517 8.40671 48.5269C8.35547 48.5021 8.29963 48.4886 8.24285 48.4871L8.22895 48.5434Z" fill="white" stroke="white" stroke-width="0.5" stroke-miterlimit="10"/>
</g>
<defs>
<clipPath id="clip0">
<rect width="60" height="60" fill="white"/>
</clipPath>
</defs>
</svg>
