<svg width="60" height="60" fill="none" xmlns="http://www.w3.org/2000/svg"><g clip-path="url(#clip0)" fill="#fff" stroke="#fff" stroke-width=".5" stroke-miterlimit="10"><path d="M29.924 57.212A25.212 25.212 0 1155.151 32a25.226 25.226 0 01-25.227 25.212zm0-48.852A23.64 23.64 0 1053.564 32a23.67 23.67 0 00-23.64-23.64v0zM13.142 44.976a.815.815 0 01-.65-.317.816.816 0 01.182-1.118l3.02-2.16a.79.79 0 11.922 1.284l-3.02 2.16a.816.816 0 01-.454.15zm33.535 0a.74.74 0 01-.453-.151l-3.022-2.16a.79.79 0 11.922-1.284l3.021 2.16a.802.802 0 01.181 1.118.786.786 0 01-.634.317h-.015zm-36.465-5.77a.8.8 0 01-.242-1.511l3.504-1.133a.787.787 0 01.997.514.771.771 0 01-.513.981l-3.505 1.148a.677.677 0 01-.242 0v0zm39.425 0a.677.677 0 01-.241 0l-3.505-1.149a.77.77 0 01-.513-.982.786.786 0 01.997-.558l3.504 1.133a.8.8 0 01-.241 1.51v.045zM30 37.482a5.393 5.393 0 01-3.867-1.616.772.772 0 010-1.118.8.8 0 011.118 0 3.957 3.957 0 005.498 0 .801.801 0 011.358.56.77.77 0 01-.24.558 5.394 5.394 0 01-3.942 1.616H30zm0-2.28a3.202 3.202 0 01-.785-6.3V19.75a.786.786 0 011.51 0v9.064a3.202 3.202 0 01-.785 6.299l.06.09zm0-4.82A1.616 1.616 0 1031.616 32a1.616 1.616 0 00-1.692-1.677l.076.06zm29.215 2.402a.785.785 0 01-.801-.785 28.414 28.414 0 00-56.828 0 .786.786 0 01-.8.785A.786.786 0 010 32a30 30 0 1160 0 .786.786 0 01-.861.785h.075zm-8.49 0h-3.761a.786.786 0 010-1.51h3.686a.785.785 0 110 1.51h.075zm-37.764 0H9.199a.785.785 0 110-1.51h3.686a.785.785 0 110 1.51h.076zm.83-5.256a.682.682 0 01-.241 0L9.97 26.35a.793.793 0 01.483-1.511l3.505 1.148a.785.785 0 01.223 1.39.8.8 0 01-.465.15h.075zm32.418 0a.8.8 0 01-.756-.544.784.784 0 01.514-.997l3.429-1.148a.784.784 0 01.997.514.8.8 0 01-.499.997l-3.52 1.132a.68.68 0 01-.241.046h.075zM16.163 22.77a.74.74 0 01-.453-.15l-3.021-2.16a.8.8 0 11.936-1.285l3.021 2.175a.785.785 0 01-.483 1.42v0zm27.583 0a.785.785 0 01-.468-1.42l3.021-2.175a.79.79 0 01.922 1.284l-3.022 2.16a.74.74 0 01-.483.151h.03zm-3.776-3.76a.785.785 0 01-.635-1.255l2.16-3.02a.786.786 0 011.316.046.802.802 0 01-.032.89l-2.175 3.02a.785.785 0 01-.664.318h.03zm-20.03 0a.786.786 0 01-.635-.333l-2.175-3.021a.8.8 0 111.284-.937l2.16 3.021a.785.785 0 01-.166 1.103.756.756 0 01-.499.166h.03zm4.743-2.418a.77.77 0 01-.74-.559l-1.148-3.504a.793.793 0 011.51-.484l1.133 3.505a.785.785 0 01-.498.997.769.769 0 01-.287.045h.03zm10.574 0a.769.769 0 01-.257 0 .8.8 0 01-.498-.997l1.132-3.504a.794.794 0 011.511.483l-1.148 3.504a.77.77 0 01-.8.514h.06zm-5.272-.846a.785.785 0 01-.786-.785v-3.686a.786.786 0 111.511 0v3.686a.786.786 0 01-.786.785h.06z"/><path d="M38.097 50.384H21.752v-8.55h16.345v8.55zm-14.759-1.51h13.188v-5.47H23.338v5.47zM34.29 46.94h-1.51v-1.617h1.51v1.617zm-3.535 0h-1.51v-1.617h1.51v1.617zm-3.565 0h-1.586v-1.617h1.586v1.617z"/></g><defs><clipPath id="clip0"><path fill="#fff" d="M0 0h60v60H0z"/></clipPath></defs></svg>