<svg width="193" height="180" viewBox="0 0 193 180" fill="none" xmlns="http://www.w3.org/2000/svg">
<path d="M37.8933 180H4.90161C3.60162 180 2.35487 179.466 1.43564 178.514C0.516405 177.563 0 176.272 0 174.927V104.504C0 103.159 0.516405 101.868 1.43564 100.917C2.35487 99.9654 3.60162 99.4309 4.90161 99.4309H37.8933C39.1932 99.4309 40.44 99.9654 41.3592 100.917C42.2785 101.868 42.7949 103.159 42.7949 104.504V174.927C42.7949 176.272 42.2785 177.563 41.3592 178.514C40.44 179.466 39.1932 180 37.8933 180V180ZM9.75609 169.837H32.9759V109.675H9.75609V169.837Z" fill="#54C0D0"/>
<path d="M52.2997 101.935V177.805H130.176C130.176 177.805 139.005 176.179 139.005 166.634C139.005 157.089 132.469 156.472 132.469 156.472C132.469 156.472 147.347 156.293 147.347 146.13C147.347 135.968 141.958 134.748 141.958 134.748C141.958 134.748 155.202 134.911 155.862 124.585C156.522 114.26 150.63 113.057 150.63 113.057C150.63 113.057 164.534 114.244 164.534 101.886C164.534 89.5285 155.375 90.374 155.375 90.374H99.085L104.316 44.9919C104.316 44.9919 105.526 34.4878 97.2783 34.8293C97.2783 34.8293 91.1198 34.374 86.4853 45.4959C81.3323 57.8699 62.6056 98.6667 62.6056 98.6667L52.2997 101.935Z" fill="#54C0D0"/>
<path d="M175.657 78.4065C175.305 78.4032 174.958 78.3257 174.636 78.1789L153.395 68.7968L131.401 78.1952C130.979 78.3714 130.521 78.4326 130.07 78.3728C129.618 78.313 129.19 78.1343 128.824 77.8537C128.462 77.5689 128.177 77.1912 127.998 76.7579C127.819 76.3245 127.752 75.8504 127.803 75.3821L130.443 51.7073L114.56 33.6586C114.256 33.31 114.044 32.8859 113.946 32.4276C113.848 31.9694 113.866 31.4925 113.999 31.0438C114.132 30.595 114.375 30.1895 114.705 29.8669C115.034 29.5444 115.439 29.3157 115.879 29.2033L139.617 23.2195L151.18 1.39838C151.403 0.974852 151.733 0.621435 152.134 0.375343C152.535 0.129251 152.992 -0.000412472 153.458 9.85709e-07V9.85709e-07C153.921 -0.000246051 154.375 0.125944 154.775 0.365797C155.175 0.605649 155.506 0.950648 155.736 1.36586L167.362 22.8943L190.927 29.2033C191.368 29.3212 191.772 29.5559 192.099 29.8843C192.426 30.2128 192.664 30.6236 192.791 31.0765C192.918 31.5294 192.929 32.0086 192.822 32.467C192.716 32.9255 192.496 33.3473 192.184 33.6911L176.238 51.2683L178.265 75.4472C178.302 75.9143 178.224 76.3836 178.037 76.8105C177.85 77.2374 177.561 77.6077 177.197 77.8862C176.75 78.2244 176.21 78.4066 175.657 78.4065V78.4065ZM121.331 33.3821L135.061 49.0407C135.31 49.3274 135.498 49.6655 135.612 50.0326C135.725 50.3997 135.763 50.7876 135.721 51.1707L133.443 71.496L152.406 63.3659C152.726 63.225 153.071 63.1524 153.419 63.1524C153.767 63.1524 154.112 63.225 154.432 63.3659L172.672 71.496L170.928 50.5854C170.896 50.2039 170.943 49.8199 171.065 49.4584C171.187 49.0969 171.381 48.7661 171.635 48.4878L185.444 33.3659L165.021 27.9187C164.689 27.8204 164.379 27.6547 164.109 27.4314C163.84 27.2081 163.616 26.9316 163.45 26.6179L153.49 8.34147L143.639 26.9268C143.466 27.259 143.226 27.5495 142.936 27.7793C142.647 28.0091 142.313 28.1729 141.958 28.2602L121.331 33.3821Z" fill="#54C0D0"/>
</svg>
