<svg width="60" height="60" fill="none" xmlns="http://www.w3.org/2000/svg"><g clip-path="url(#clip0)"><path d="M30.08 60c-.16 0-.319-.032-.465-.096C13.198 52.858 3 39.532 3 25.137V13.978 2.82a1.174 1.174 0 01.787-1.116 1.246 1.246 0 011.333.334c2.152 2.52 6.634 4.145 11.436 4.145 5.734 0 10.938-2.327 12.352-5.531A1.231 1.231 0 0130 0a1.244 1.244 0 011.092.652c1.43 3.188 6.618 5.531 12.352 5.531 4.818 0 9.3-1.594 11.436-4.145a1.239 1.239 0 011.333-.334c.231.082.431.234.572.434.141.2.216.438.215.682v22.317c0 14.347-10.2 27.721-26.599 34.767-.102.046-.21.078-.32.096zM5.474 5.545v19.656c0 13.295 9.444 25.665 24.687 32.392 15.242-6.727 24.687-19.13 24.687-32.392V14.042 5.545a19.997 19.997 0 01-11.163 3.109c-5.83 0-10.906-2.025-13.444-5.18-2.522 3.187-7.613 5.18-13.444 5.18A20.046 20.046 0 015.474 5.545v0zm23.755 35.613a1.244 1.244 0 01-.915-.415L18.29 29.218a1.2 1.2 0 01.104-1.698 1.215 1.215 0 011.71.104l8.98 10.457L42.4 17.9a1.212 1.212 0 011.606-.35 1.172 1.172 0 01.337 1.594L30.225 40.615a1.153 1.153 0 01-.932.526l-.064.016z" fill="#fff" stroke="#fff" stroke-width=".5" stroke-miterlimit="10"/></g><defs><clipPath id="clip0"><path fill="#fff" d="M0 0h60v60H0z"/></clipPath></defs></svg>