<svg width="308" height="300" viewBox="0 0 308 300" fill="none" xmlns="http://www.w3.org/2000/svg">
<path d="M94.8933 240H61.9016C60.6016 240 59.3549 239.466 58.4356 238.514C57.5164 237.563 57 236.272 57 234.927V164.504C57 163.159 57.5164 161.868 58.4356 160.917C59.3549 159.965 60.6016 159.431 61.9016 159.431H94.8933C96.1932 159.431 97.44 159.965 98.3592 160.917C99.2785 161.868 99.7949 163.159 99.7949 164.504V234.927C99.7949 236.272 99.2785 237.563 98.3592 238.514C97.44 239.466 96.1932 240 94.8933 240V240ZM66.7561 229.837H89.9759V169.675H66.7561V229.837Z" fill="#54C0D0"/>
<path d="M109.3 161.935V237.805H187.176C187.176 237.805 196.005 236.179 196.005 226.634C196.005 217.089 189.469 216.472 189.469 216.472C189.469 216.472 204.347 216.293 204.347 206.13C204.347 195.968 198.958 194.748 198.958 194.748C198.958 194.748 212.202 194.911 212.862 184.585C213.522 174.26 207.63 173.057 207.63 173.057C207.63 173.057 221.534 174.244 221.534 161.886C221.534 149.528 212.375 150.374 212.375 150.374H156.085L161.316 104.992C161.316 104.992 162.526 94.4878 154.278 94.8293C154.278 94.8293 148.12 94.374 143.485 105.496C138.332 117.87 119.606 158.667 119.606 158.667L109.3 161.935Z" fill="#54C0D0"/>
<path d="M232.657 138.407C232.305 138.403 231.958 138.326 231.636 138.179L210.395 128.797L188.401 138.195C187.979 138.371 187.521 138.433 187.07 138.373C186.618 138.313 186.19 138.134 185.824 137.854C185.462 137.569 185.177 137.191 184.998 136.758C184.819 136.325 184.752 135.85 184.803 135.382L187.443 111.707L171.56 93.6586C171.256 93.31 171.044 92.8859 170.946 92.4276C170.848 91.9694 170.866 91.4925 170.999 91.0438C171.132 90.595 171.375 90.1895 171.705 89.8669C172.034 89.5444 172.439 89.3157 172.879 89.2033L196.617 83.2195L208.18 61.3984C208.403 60.9749 208.733 60.6214 209.134 60.3753C209.535 60.1293 209.992 59.9996 210.458 60V60C210.921 59.9998 211.375 60.1259 211.775 60.3658C212.175 60.6056 212.506 60.9506 212.736 61.3659L224.362 82.8943L247.927 89.2033C248.368 89.3212 248.772 89.5559 249.099 89.8843C249.426 90.2128 249.664 90.6236 249.791 91.0765C249.918 91.5294 249.929 92.0086 249.822 92.467C249.716 92.9255 249.496 93.3473 249.184 93.6911L233.238 111.268L235.265 135.447C235.302 135.914 235.224 136.384 235.037 136.811C234.85 137.237 234.561 137.608 234.197 137.886C233.75 138.224 233.21 138.407 232.657 138.407V138.407ZM178.331 93.3821L192.061 109.041C192.31 109.327 192.498 109.665 192.612 110.033C192.725 110.4 192.763 110.788 192.721 111.171L190.443 131.496L209.406 123.366C209.726 123.225 210.071 123.152 210.419 123.152C210.767 123.152 211.112 123.225 211.432 123.366L229.672 131.496L227.928 110.585C227.896 110.204 227.943 109.82 228.065 109.458C228.187 109.097 228.381 108.766 228.635 108.488L242.444 93.3659L222.021 87.9187C221.689 87.8204 221.379 87.6547 221.109 87.4314C220.84 87.2081 220.616 86.9316 220.45 86.6179L210.49 68.3415L200.639 86.9268C200.466 87.259 200.226 87.5495 199.936 87.7793C199.647 88.0091 199.313 88.1729 198.958 88.2602L178.331 93.3821Z" fill="#54C0D0"/>
</svg>
